<svg width="25" height="25" viewBox="0 0 25 25" fill="none" xmlns="http://www.w3.org/2000/svg">
<g clip-path="url(#clip0_36_400)">
<path d="M3.25 5.03736C3.25 3.93536 4.143 3.04236 5.245 3.04236H19.255C20.357 3.04236 21.25 3.93536 21.25 5.03736V19.0474C21.25 19.5765 21.0398 20.0839 20.6657 20.458C20.2915 20.8322 19.7841 21.0424 19.255 21.0424H5.245C4.71589 21.0424 4.20846 20.8322 3.83432 20.458C3.46019 20.0839 3.25 19.5765 3.25 19.0474V5.03736ZM5.25 5.04236V19.0424H19.25V5.04236H5.25ZM8.222 18.2224C7.60698 17.956 7.02036 17.6283 6.471 17.2444C7.10527 16.2614 7.97596 15.4532 9.00339 14.8938C10.0308 14.3344 11.1822 14.0417 12.352 14.0424C14.752 14.0424 16.869 15.2494 18.13 17.0894C17.5912 17.488 17.0136 17.8314 16.406 18.1144C15.9429 17.4724 15.3338 16.9497 14.6289 16.5894C13.924 16.2291 13.1436 16.0416 12.352 16.0424C10.637 16.0424 9.122 16.9064 8.222 18.2224ZM12.25 13.0424C11.7904 13.0424 11.3352 12.9518 10.9106 12.7759C10.486 12.6 10.1001 12.3422 9.77513 12.0172C9.45012 11.6922 9.19231 11.3064 9.01642 10.8818C8.84053 10.4571 8.75 10.002 8.75 9.54236C8.75 9.08273 8.84053 8.62761 9.01642 8.20297C9.19231 7.77833 9.45012 7.39249 9.77513 7.06748C10.1001 6.74248 10.486 6.48467 10.9106 6.30878C11.3352 6.13289 11.7904 6.04236 12.25 6.04236C13.1783 6.04236 14.0685 6.41111 14.7249 7.06748C15.3813 7.72386 15.75 8.6141 15.75 9.54236C15.75 10.4706 15.3813 11.3609 14.7249 12.0172C14.0685 12.6736 13.1783 13.0424 12.25 13.0424ZM12.25 11.0424C12.6478 11.0424 13.0294 10.8843 13.3107 10.603C13.592 10.3217 13.75 9.94018 13.75 9.54236C13.75 9.14453 13.592 8.763 13.3107 8.4817C13.0294 8.20039 12.6478 8.04236 12.25 8.04236C11.8522 8.04236 11.4706 8.20039 11.1893 8.4817C10.908 8.763 10.75 9.14453 10.75 9.54236C10.75 9.94018 10.908 10.3217 11.1893 10.603C11.4706 10.8843 11.8522 11.0424 12.25 11.0424Z" fill="white"/>
</g>
<defs>
<clipPath id="clip0_36_400">
<rect width="24" height="24" fill="white" transform="translate(0.25 0.0423584)"/>
</clipPath>
</defs>
</svg>
