<svg width="25" height="25" viewBox="0 0 25 25" fill="none" xmlns="http://www.w3.org/2000/svg">
<g clip-path="url(#clip0_36_413)">
<path d="M3.75 10.0424H2.75V4.04536C2.75 3.49136 3.205 3.04236 3.742 3.04236H21.758C21.8893 3.04208 22.0193 3.06792 22.1405 3.11836C22.2617 3.16881 22.3717 3.24285 22.464 3.33619C22.5563 3.42953 22.6291 3.5403 22.6782 3.66205C22.7273 3.78379 22.7517 3.91409 22.75 4.04536V10.0424H21.75V20.0434C21.7504 20.1742 21.725 20.3038 21.6753 20.4247C21.6256 20.5457 21.5526 20.6558 21.4604 20.7485C21.3682 20.8413 21.2586 20.915 21.1379 20.9654C21.0172 21.0158 20.8878 21.042 20.757 21.0424H4.743C4.6122 21.042 4.48276 21.0158 4.36207 20.9654C4.24139 20.915 4.13181 20.8413 4.0396 20.7485C3.94739 20.6558 3.87436 20.5457 3.82467 20.4247C3.77498 20.3038 3.74961 20.1742 3.75 20.0434V10.0424ZM19.75 10.0424H5.75V19.0424H19.75V10.0424ZM4.75 5.04236V8.04236H20.75V5.04236H4.75ZM9.75 12.0424H15.75V14.0424H9.75V12.0424Z" fill="white"/>
</g>
<defs>
<clipPath id="clip0_36_413">
<rect width="24" height="24" fill="white" transform="translate(0.75 0.0423584)"/>
</clipPath>
</defs>
</svg>
