<svg width="25" height="25" viewBox="0 0 25 25" fill="none" xmlns="http://www.w3.org/2000/svg">
<g clip-path="url(#clip0_34_180)">
<path d="M18.599 12.1836L17.892 11.4766L7.992 21.3766H3.75V17.1336L15.063 5.81964L20.72 11.4766C20.9075 11.6642 21.0128 11.9185 21.0128 12.1836C21.0128 12.4488 20.9075 12.7031 20.72 12.8906L13.65 19.9616L12.235 18.5476L18.599 12.1836ZM16.478 10.0626L15.063 8.64864L5.75 17.9616V19.3766H7.164L16.478 10.0626ZM19.306 2.99164L22.135 5.81964C22.3225 6.00717 22.4278 6.26147 22.4278 6.52664C22.4278 6.7918 22.3225 7.04611 22.135 7.23364L20.72 8.64864L16.478 4.40564L17.892 2.99164C18.0795 2.80417 18.3338 2.69885 18.599 2.69885C18.8642 2.69885 19.1185 2.80417 19.306 2.99164Z" fill="white"/>
</g>
<defs>
<clipPath id="clip0_34_180">
<rect width="24" height="24" fill="white" transform="translate(0.75 0.37561)"/>
</clipPath>
</defs>
</svg>
