<svg width="25" height="25" viewBox="0 0 25 25" fill="none" xmlns="http://www.w3.org/2000/svg">
<g clip-path="url(#clip0_34_193)">
<path d="M12.25 2.37561C17.772 2.37561 22.25 6.35361 22.25 11.2646C22.2492 12.7378 21.6636 14.1504 20.6217 15.1921C19.5799 16.2337 18.1672 16.8191 16.694 16.8196H14.728C13.806 16.8196 13.061 17.5646 13.061 18.4866C13.061 18.9086 13.228 19.2976 13.483 19.5866C13.75 19.8866 13.917 20.2756 13.917 20.7086C13.917 21.6316 13.15 22.3756 12.25 22.3756C6.728 22.3756 2.25 17.8976 2.25 12.3756C2.25 6.85361 6.728 2.37561 12.25 2.37561ZM11.061 18.4866C11.0606 18.0049 11.1552 17.5279 11.3393 17.0828C11.5235 16.6378 11.7936 16.2334 12.1342 15.8928C12.4748 15.5522 12.8792 15.2821 13.3242 15.0979C13.7693 14.9138 14.2463 14.8192 14.728 14.8196H16.694C17.6366 14.8191 18.5405 14.4445 19.2072 13.7782C19.8739 13.1119 20.2489 12.2082 20.25 11.2656C20.25 7.51461 16.718 4.37561 12.25 4.37561C10.1856 4.37373 8.20034 5.16997 6.70938 6.59786C5.21841 8.02575 4.33715 9.97474 4.24986 12.0373C4.16256 14.0999 4.87599 16.1164 6.24097 17.6651C7.60595 19.2139 9.5168 20.175 11.574 20.3476C11.2392 19.7849 11.062 19.1424 11.061 18.4876V18.4866ZM7.75 12.3756C7.35218 12.3756 6.97064 12.2176 6.68934 11.9363C6.40804 11.655 6.25 11.2734 6.25 10.8756C6.25 10.4778 6.40804 10.0963 6.68934 9.81495C6.97064 9.53365 7.35218 9.37561 7.75 9.37561C8.14782 9.37561 8.52936 9.53365 8.81066 9.81495C9.09196 10.0963 9.25 10.4778 9.25 10.8756C9.25 11.2734 9.09196 11.655 8.81066 11.9363C8.52936 12.2176 8.14782 12.3756 7.75 12.3756ZM16.75 12.3756C16.3522 12.3756 15.9706 12.2176 15.6893 11.9363C15.408 11.655 15.25 11.2734 15.25 10.8756C15.25 10.4778 15.408 10.0963 15.6893 9.81495C15.9706 9.53365 16.3522 9.37561 16.75 9.37561C17.1478 9.37561 17.5294 9.53365 17.8107 9.81495C18.092 10.0963 18.25 10.4778 18.25 10.8756C18.25 11.2734 18.092 11.655 17.8107 11.9363C17.5294 12.2176 17.1478 12.3756 16.75 12.3756ZM12.25 9.37561C11.8522 9.37561 11.4706 9.21758 11.1893 8.93627C10.908 8.65497 10.75 8.27344 10.75 7.87561C10.75 7.47779 10.908 7.09625 11.1893 6.81495C11.4706 6.53365 11.8522 6.37561 12.25 6.37561C12.6478 6.37561 13.0294 6.53365 13.3107 6.81495C13.592 7.09625 13.75 7.47779 13.75 7.87561C13.75 8.27344 13.592 8.65497 13.3107 8.93627C13.0294 9.21758 12.6478 9.37561 12.25 9.37561Z" fill="white"/>
</g>
<defs>
<clipPath id="clip0_34_193">
<rect width="24" height="24" fill="white" transform="translate(0.25 0.37561)"/>
</clipPath>
</defs>
</svg>
