<svg width="25" height="25" viewBox="0 0 25 25" fill="none" xmlns="http://www.w3.org/2000/svg">
<g clip-path="url(#clip0_34_132)">
<path d="M12.75 11.709C14.0761 11.709 15.3479 12.2358 16.2855 13.1735C17.2232 14.1111 17.75 15.3829 17.75 16.709V22.709H15.75V16.709C15.75 15.9438 15.4577 15.2075 14.9327 14.6507C14.4078 14.094 13.6899 13.7589 12.926 13.714L12.75 13.709C11.9848 13.7089 11.2485 14.0013 10.6917 14.5263C10.135 15.0512 9.79989 15.7691 9.755 16.533L9.75 16.709V22.709H7.75V16.709C7.75 15.3829 8.27678 14.1111 9.21447 13.1735C10.1521 12.2358 11.4239 11.709 12.75 11.709ZM6.25 14.709C6.529 14.709 6.8 14.742 7.06 14.803C6.88902 15.312 6.78777 15.8418 6.759 16.378L6.75 16.709V16.795C6.63505 16.7539 6.51549 16.727 6.394 16.715L6.25 16.709C5.87712 16.709 5.51761 16.8479 5.24158 17.0986C4.96555 17.3493 4.7928 17.6938 4.757 18.065L4.75 18.209V22.709H2.75V18.209C2.75 17.2807 3.11875 16.3905 3.77513 15.7341C4.4315 15.0777 5.32174 14.709 6.25 14.709ZM19.25 14.709C20.1783 14.709 21.0685 15.0777 21.7249 15.7341C22.3813 16.3905 22.75 17.2807 22.75 18.209V22.709H20.75V18.209C20.75 17.8361 20.6111 17.4766 20.3604 17.2006C20.1097 16.9245 19.7652 16.7518 19.394 16.716L19.25 16.709C19.075 16.709 18.907 16.739 18.75 16.794V16.709C18.75 16.043 18.642 15.403 18.441 14.805C18.7 14.742 18.971 14.709 19.25 14.709ZM6.25 8.70898C6.91304 8.70898 7.54893 8.97238 8.01777 9.44122C8.48661 9.91006 8.75 10.5459 8.75 11.209C8.75 11.872 8.48661 12.5079 8.01777 12.9768C7.54893 13.4456 6.91304 13.709 6.25 13.709C5.58696 13.709 4.95107 13.4456 4.48223 12.9768C4.01339 12.5079 3.75 11.872 3.75 11.209C3.75 10.5459 4.01339 9.91006 4.48223 9.44122C4.95107 8.97238 5.58696 8.70898 6.25 8.70898ZM19.25 8.70898C19.913 8.70898 20.5489 8.97238 21.0178 9.44122C21.4866 9.91006 21.75 10.5459 21.75 11.209C21.75 11.872 21.4866 12.5079 21.0178 12.9768C20.5489 13.4456 19.913 13.709 19.25 13.709C18.587 13.709 17.9511 13.4456 17.4822 12.9768C17.0134 12.5079 16.75 11.872 16.75 11.209C16.75 10.5459 17.0134 9.91006 17.4822 9.44122C17.9511 8.97238 18.587 8.70898 19.25 8.70898ZM6.25 10.709C6.11739 10.709 5.99021 10.7617 5.89645 10.8554C5.80268 10.9492 5.75 11.0764 5.75 11.209C5.75 11.3416 5.80268 11.4688 5.89645 11.5625C5.99021 11.6563 6.11739 11.709 6.25 11.709C6.38261 11.709 6.50979 11.6563 6.60355 11.5625C6.69732 11.4688 6.75 11.3416 6.75 11.209C6.75 11.0764 6.69732 10.9492 6.60355 10.8554C6.50979 10.7617 6.38261 10.709 6.25 10.709ZM19.25 10.709C19.1174 10.709 18.9902 10.7617 18.8964 10.8554C18.8027 10.9492 18.75 11.0764 18.75 11.209C18.75 11.3416 18.8027 11.4688 18.8964 11.5625C18.9902 11.6563 19.1174 11.709 19.25 11.709C19.3826 11.709 19.5098 11.6563 19.6036 11.5625C19.6973 11.4688 19.75 11.3416 19.75 11.209C19.75 11.0764 19.6973 10.9492 19.6036 10.8554C19.5098 10.7617 19.3826 10.709 19.25 10.709ZM12.75 2.70898C13.8109 2.70898 14.8283 3.13041 15.5784 3.88056C16.3286 4.6307 16.75 5.64812 16.75 6.70898C16.75 7.76985 16.3286 8.78727 15.5784 9.53741C14.8283 10.2876 13.8109 10.709 12.75 10.709C11.6891 10.709 10.6717 10.2876 9.92157 9.53741C9.17143 8.78727 8.75 7.76985 8.75 6.70898C8.75 5.64812 9.17143 4.6307 9.92157 3.88056C10.6717 3.13041 11.6891 2.70898 12.75 2.70898ZM12.75 4.70898C12.2196 4.70898 11.7109 4.9197 11.3358 5.29477C10.9607 5.66984 10.75 6.17855 10.75 6.70898C10.75 7.23942 10.9607 7.74813 11.3358 8.1232C11.7109 8.49827 12.2196 8.70898 12.75 8.70898C13.2804 8.70898 13.7891 8.49827 14.1642 8.1232C14.5393 7.74813 14.75 7.23942 14.75 6.70898C14.75 6.17855 14.5393 5.66984 14.1642 5.29477C13.7891 4.9197 13.2804 4.70898 12.75 4.70898Z" fill="white"/>
</g>
<defs>
<clipPath id="clip0_34_132">
<rect width="24" height="24" fill="white" transform="translate(0.75 0.708984)"/>
</clipPath>
</defs>
</svg>
