<svg width="25" height="25" viewBox="0 0 25 25" fill="none" xmlns="http://www.w3.org/2000/svg">
<g clip-path="url(#clip0_34_149)">
<path d="M12.25 22.709C6.727 22.709 2.25 18.232 2.25 12.709C2.25 7.18598 6.727 2.70898 12.25 2.70898C17.773 2.70898 22.25 7.18598 22.25 12.709C22.25 18.232 17.773 22.709 12.25 22.709ZM12.25 20.709C14.3717 20.709 16.4066 19.8661 17.9069 18.3658C19.4071 16.8655 20.25 14.8307 20.25 12.709C20.25 10.5873 19.4071 8.55242 17.9069 7.05213C16.4066 5.55184 14.3717 4.70898 12.25 4.70898C10.1283 4.70898 8.09344 5.55184 6.59315 7.05213C5.09285 8.55242 4.25 10.5873 4.25 12.709C4.25 14.8307 5.09285 16.8655 6.59315 18.3658C8.09344 19.8661 10.1283 20.709 12.25 20.709ZM13.25 12.709H17.25V14.709H11.25V7.70898H13.25V12.709Z" fill="white"/>
</g>
<defs>
<clipPath id="clip0_34_149">
<rect width="24" height="24" fill="white" transform="translate(0.25 0.708984)"/>
</clipPath>
</defs>
</svg>
